<svg xmlns="http://www.w3.org/2000/svg" width="111.5" height="25.769" viewBox="0 0 111.5 25.769">
  <g id="Grupo_835" data-name="Grupo 835" transform="translate(-337.628 -234.244)">
    <g id="Grupo_4" data-name="Grupo 4" transform="translate(337.628 234.254)">
      <g id="Grupo_3" data-name="Grupo 3">
        <g id="Grupo_1" data-name="Grupo 1" transform="translate(0 6.718)">
          <path id="Trazado_1" data-name="Trazado 1" d="M347.386,259.5h0a.193.193,0,0,1-.193-.193.191.191,0,0,1,.015-.073v0l.824-2.086a3.522,3.522,0,0,1-2.8-1.482,4.07,4.07,0,0,1-.222-3.821l.073-.184h-3.562a.406.406,0,0,0-.369.238l-.012.031-.338.855h0l-2.876,7.279c-.855,2.163.206,3.919,2.37,3.919h4.756a.193.193,0,0,1,.179.267v0l-2.321,5.874-.01.027a.4.4,0,0,0-.027.141.407.407,0,0,0,.407.407h8.086a.407.407,0,0,0,.373-.245l0-.009,2.776-7.025c.856-2.163-.206-3.92-2.371-3.92h-4.76" transform="translate(-337.628 -251.659)" fill="#fff"/>
        </g>
        <g id="Grupo_2" data-name="Grupo 2" transform="translate(8.038)">
          <path id="Trazado_2" data-name="Trazado 2" d="M365.854,245.468h0a.193.193,0,0,1,.178.267v0l-.824,2.086a3.521,3.521,0,0,1,2.8,1.481,4.069,4.069,0,0,1,.222,3.821l-.073.184h3.565a.406.406,0,0,0,.369-.237l.012-.031.338-.855h0l2.876-7.279c.855-2.163-.206-3.92-2.37-3.92h-4.756a.193.193,0,0,1-.179-.267v0l2.321-5.875.01-.027a.4.4,0,0,0,.027-.141.407.407,0,0,0-.407-.407h-8.086a.407.407,0,0,0-.373.245l0,.01-2.773,7.024c-.856,2.163.206,3.919,2.37,3.919h4.756" transform="translate(-358.433 -234.27)" fill="#fff"/>
        </g>
      </g>
    </g>
    <g id="Grupo_11" data-name="Grupo 11" transform="translate(365.23 234.244)">
      <g id="Grupo_9" data-name="Grupo 9" transform="translate(0 0)">
        <g id="Grupo_7" data-name="Grupo 7" transform="translate(28.654 0.126)">
          <g id="Grupo_5" data-name="Grupo 5" transform="translate(5.938 5.802)">
            <path id="Trazado_3" data-name="Trazado 3" d="M506.943,249.588v7.92a3.746,3.746,0,0,1-.557,2.339,3.026,3.026,0,0,1-3.818,0,3.745,3.745,0,0,1-.557-2.339v-7.92h-3.394v7.849a8.993,8.993,0,0,0,.3,2.559,3.824,3.824,0,0,0,1.021,1.71,4.125,4.125,0,0,0,1.816.968,12.809,12.809,0,0,0,5.436,0,4.13,4.13,0,0,0,1.816-.968A3.824,3.824,0,0,0,510.031,260a9,9,0,0,0,.305-2.559v-7.851Z" transform="translate(-498.614 -249.588)" fill="#fff"/>
          </g>
          <g id="Grupo_6" data-name="Grupo 6">
            <rect id="Rectángulo_2" data-name="Rectángulo 2" width="3.394" height="18.915" fill="#fff"/>
            <path id="Trazado_4" data-name="Trazado 4" d="M542.788,234.569v6.248a6.856,6.856,0,0,0-1.568-.562,8.007,8.007,0,0,0-1.781-.188,5.322,5.322,0,0,0-4.346,1.661q-1.361,1.647-1.361,5.287,0,3.546,1.334,5.134a5.234,5.234,0,0,0,4.24,1.6,7.662,7.662,0,0,0,1.993-.225,6.147,6.147,0,0,0,1.7-.769l.133.729h3.049V234.569Zm0,16.014a7,7,0,0,1-1.342.556,5.029,5.029,0,0,1-1.382.172,2.468,2.468,0,0,1-2.233-.991,6.228,6.228,0,0,1-.651-3.3,6.656,6.656,0,0,1,.651-3.438,2.428,2.428,0,0,1,2.207-1,5.81,5.81,0,0,1,1.409.146,5.611,5.611,0,0,1,1.342.529Z" transform="translate(-514.227 -234.569)" fill="#fff"/>
          </g>
        </g>
        <g id="Grupo_8" data-name="Grupo 8" transform="translate(14.181 5.623)">
          <path id="Trazado_5" data-name="Trazado 5" d="M458.464,259.9q-1.26,0-1.259-1.459v-5.052a4.346,4.346,0,0,0-1.275-3.487,6.054,6.054,0,0,0-4-1.1,12.785,12.785,0,0,0-2.275.2c-.489.087-1,.2-1.543.348l-.025.006a.169.169,0,0,0-.1.087l-.006.015-.956,2.418-.013.033a.124.124,0,0,0-.005.027.122.122,0,0,0,.122.122.114.114,0,0,0,.03-.006l.022-.007a22.679,22.679,0,0,1,2.235-.615,17.043,17.043,0,0,1,2.073-.127,2.447,2.447,0,0,1,1.754.53,2.24,2.24,0,0,1,.558,1.67v1.09h-2.674a6.6,6.6,0,0,0-3.984.994,3.481,3.481,0,0,0-1.363,2.97,3.717,3.717,0,0,0,1.147,2.93,4.893,4.893,0,0,0,3.338.994,5.532,5.532,0,0,0,3.868-1.352,2.672,2.672,0,0,0,2.666,1.352,4.227,4.227,0,0,0,.934-.105l.985-2.493C458.63,259.892,458.543,259.9,458.464,259.9Zm-4.654-.637a4.58,4.58,0,0,1-2.659.835q-1.968,0-1.968-1.657,0-1.537,2.154-1.538h2.473Z" transform="translate(-445.782 -248.799)" fill="#fff"/>
        </g>
        <path id="Trazado_6" data-name="Trazado 6" d="M420.508,244.315a7.856,7.856,0,0,0-3.81-1.938l-1.458-.384a4.191,4.191,0,0,1-1.968-1,2.33,2.33,0,0,1-.59-1.672,2.241,2.241,0,0,1,.754-1.871,3.913,3.913,0,0,1,2.42-.6,13.484,13.484,0,0,1,2.527.212,12.233,12.233,0,0,1,2.116.612h0a.121.121,0,0,0,.168-.112.119.119,0,0,0-.009-.042l0-.008-1.091-2.762,0-.007a.167.167,0,0,0-.112-.094l-.012,0c-.435-.1-.875-.181-1.323-.249a14.532,14.532,0,0,0-2.207-.159q-6.833,0-6.834,5.518a4.813,4.813,0,0,0,1.114,3.353,7,7,0,0,0,3.606,1.854l1.524.386a4.214,4.214,0,0,1,2.159,1.036,3.1,3.1,0,0,1-.22,3.932,4.151,4.151,0,0,1-2.619.664,10.958,10.958,0,0,1-2.715-.332,11.854,11.854,0,0,1-2.366-.911l-.033-.017a.124.124,0,0,0-.036-.007.122.122,0,0,0-.122.122.113.113,0,0,0,.006.03l.012.03,1.2,3.038.012.03a.165.165,0,0,0,.083.077l.039.011a13.872,13.872,0,0,0,1.391.3,18.453,18.453,0,0,0,2.846.185q3.55,0,5.132-1.363a5.5,5.5,0,0,0,1.6-4.407A4.84,4.84,0,0,0,420.508,244.315Z" transform="translate(-409.075 -234.244)" fill="#fff"/>
      </g>
      <path id="Trazado_7" data-name="Trazado 7" d="M577.955,256.768a5.361,5.361,0,0,0-2.714-1.3l-1.178-.291a3.653,3.653,0,0,1-1.474-.7,1.613,1.613,0,0,1-.477-1.259,1.556,1.556,0,0,1,.631-1.363,3.481,3.481,0,0,1,1.983-.446,9.23,9.23,0,0,1,3.168.58l.005,0a.123.123,0,0,0,.043.008.119.119,0,0,0,.12-.119.1.1,0,0,0-.005-.024l-.016-.039-.654-1.656,0-.007a.166.166,0,0,0-.085-.084l-.046-.012a10.751,10.751,0,0,0-2.749-.34,5.371,5.371,0,0,0-3.462.962,3.367,3.367,0,0,0-1.18,2.77,3.242,3.242,0,0,0,.788,2.3,4.72,4.72,0,0,0,2.518,1.275l1.18.292a3.966,3.966,0,0,1,1.67.734,1.514,1.514,0,0,1,.495,1.2,1.908,1.908,0,0,1-.644,1.6,3.283,3.283,0,0,1-2.021.5,9.189,9.189,0,0,1-3.667-.773l-.005,0a.116.116,0,0,0-.044-.009.12.12,0,0,0-.12.12.109.109,0,0,0,.009.041l0,.009.7,1.766.006.017a.164.164,0,0,0,.083.081l.036.01a10.626,10.626,0,0,0,3.052.431,5.774,5.774,0,0,0,3.668-.943,3.681,3.681,0,0,0,1.193-2.97,3.272,3.272,0,0,0-.806-2.365Z" transform="translate(-507.743 -243.74)" fill="#fff"/>
      <g id="Grupo_10" data-name="Grupo 10" transform="translate(72.273 5.978)">
        <path id="Trazado_8" data-name="Trazado 8" d="M607.482,261.313a1.109,1.109,0,0,1-.852-.27,1.886,1.886,0,0,1-.309-1.24v-5.587A4.559,4.559,0,0,0,605.2,250.8a5.036,5.036,0,0,0-3.593-1.086,12.878,12.878,0,0,0-2.062.169,12.211,12.211,0,0,0-1.3.282l-.039.01a.165.165,0,0,0-.085.081l-.008.02-.7,1.777,0,0a.118.118,0,0,0-.009.044.12.12,0,0,0,.12.12.116.116,0,0,0,.045-.009h0a15.832,15.832,0,0,1,1.82-.495,10.108,10.108,0,0,1,1.957-.18,2.769,2.769,0,0,1,2.084.67,3,3,0,0,1,.647,2.125V255.7h-3.141a5.757,5.757,0,0,0-3.552.93,3.211,3.211,0,0,0-1.223,2.724,3.5,3.5,0,0,0,1.05,2.763,4.577,4.577,0,0,0,3.1.93,5.5,5.5,0,0,0,3.947-1.446,1.992,1.992,0,0,0,.839,1.123,2.662,2.662,0,0,0,1.356.323,3.168,3.168,0,0,0,.664-.065l.663-1.679Q607.623,261.313,607.482,261.313Zm-3.409-1.227a4.709,4.709,0,0,1-3.287,1.265q-2.381,0-2.381-2.053,0-1.962,2.614-1.963h3.054Z" transform="translate(-596.152 -249.718)" fill="#fff"/>
      </g>
    </g>
  </g>
</svg>
