<svg xmlns="http://www.w3.org/2000/svg" width="65.283" height="66.679" viewBox="0 0 65.283 66.679">
  <g id="Grupo_4" data-name="Grupo 4" transform="translate(-337.623 -234.269)">
    <g id="Grupo_3" data-name="Grupo 3">
      <g id="Grupo_1" data-name="Grupo 1">
        <path id="Trazado_1" data-name="Trazado 1" d="M362.887,271.96h0a.5.5,0,0,1-.5-.5.494.494,0,0,1,.038-.189l0-.009,2.134-5.4a9.116,9.116,0,0,1-7.252-3.835c-1.8-2.649-2.011-6.254-.574-9.891l.188-.477H347.7a1.052,1.052,0,0,0-.955.615l-.031.079-.875,2.213h0l-7.445,18.842c-2.214,5.6.533,10.145,6.136,10.145h12.31a.5.5,0,0,1,.462.691l0,.007-6.009,15.206-.027.07a1.03,1.03,0,0,0-.069.365,1.053,1.053,0,0,0,1.053,1.054h20.93a1.053,1.053,0,0,0,.966-.635l.009-.024,7.185-18.183c2.215-5.6-.533-10.146-6.136-10.146H362.884" fill="#ca001b"/>
      </g>
      <g id="Grupo_2" data-name="Grupo 2">
        <path id="Trazado_2" data-name="Trazado 2" d="M377.641,263.256h0a.5.5,0,0,1,.46.69l0,.008-2.134,5.4a9.115,9.115,0,0,1,7.252,3.834c1.8,2.65,2.011,6.255.574,9.891l-.188.477h9.228a1.051,1.051,0,0,0,.955-.614l.031-.079.875-2.213h0l7.445-18.842c2.214-5.6-.533-10.146-6.136-10.146h-12.31a.5.5,0,0,1-.462-.69l0-.007,6.009-15.207.027-.07a1.029,1.029,0,0,0,.069-.365,1.052,1.052,0,0,0-1.053-1.053h-20.93a1.053,1.053,0,0,0-.966.634l-.009.025L359.2,253.111c-2.215,5.6.533,10.145,6.136,10.145h12.312" fill="#0060ac"/>
      </g>
    </g>
  </g>
</svg>
